# xmcd
#
# Track frame offsets: 
#        150
#        11666
#        22264
#        33731
#        46557
#        58705
#        70881
#        83182
#        95168
#        108260
#        122221
#
# Disc length: 1797 seconds
#
# Revision: 0
# Processed by: cddbd v1.5.2PL0 Copyright (c) Steve Scherf et al.
# Submitted via: ExactAudioCopyFreeDBPlugin 1.0
#
DISCID=9407030b
DTITLE=Glen Campbell - 1968 - Hey Little One
DYEAR=1968
DGENRE=country
TTITLE0=Hey Little One
TTITLE1=Elusive Butterfly
TTITLE2=That's All That Matters
TTITLE3=Break My Mind
TTITLE4=Take Me Back
TTITLE5=I Don't Believe You (She Acts Like We Never Have Met)
TTITLE6=I Wanna Live
TTITLE7=It's Over
TTITLE8=Turn Around, Look at Me
TTITLE9=Woman, Woman
TTITLE10=The Impossible Dream (The Quest)
EXTD=
EXTT0=
EXTT1=
EXTT2=
EXTT3=
EXTT4=
EXTT5=
EXTT6=
EXTT7=
EXTT8=
EXTT9=
EXTT10=
PLAYORDER=
